<svg width="1240" height="48" viewBox="0 0 1240 48" fill="none" xmlns="http://www.w3.org/2000/svg">
<g clip-path="url(#clip0_1_658)">
<path d="M21.0727 3.0791C9.4747 3.0791 0.0722656 12.4813 0.0722656 24.0792C0.0722656 35.6777 9.4747 45.0791 21.0727 45.0791C32.6719 45.0791 42.0733 35.6777 42.0733 24.0792C42.0733 12.482 32.6719 3.0801 21.0724 3.0801L21.0727 3.0791ZM30.7033 33.3673C30.3271 33.9842 29.5196 34.1798 28.9028 33.8011C23.9721 30.7894 17.765 30.1073 10.455 31.7774C9.75055 31.9379 9.04839 31.4966 8.8879 30.7919C8.72665 30.0872 9.16625 29.3851 9.87243 29.2246C17.872 27.3969 24.7339 28.1839 30.2695 31.5668C30.8864 31.9454 31.082 32.7504 30.7033 33.3673ZM33.2737 27.6492C32.7997 28.4196 31.7916 28.6628 31.0218 28.1889C25.3769 24.7192 16.7722 23.7144 10.0954 25.7411C9.22945 26.0026 8.31489 25.5146 8.05208 24.6502C7.79127 23.7843 8.27953 22.8715 9.14394 22.6082C16.7707 20.2941 26.2521 21.415 32.7345 25.3985C33.5044 25.8725 33.7477 26.8806 33.2737 27.6495V27.6492ZM33.4944 21.6949C26.726 17.6748 15.5592 17.3051 9.09704 19.2664C8.05935 19.5811 6.96197 18.9953 6.6475 17.9576C6.33303 16.9194 6.91834 15.8228 7.95678 15.5073C15.3749 13.2554 27.7066 13.6905 35.4991 18.3165C36.4344 18.8704 36.7404 20.0759 36.1862 21.008C35.6345 21.9414 34.4257 22.2491 33.4954 21.6949H33.4944ZM57.2074 22.4653C53.5812 21.6006 52.9367 20.9937 52.9367 19.7186C52.9367 18.5139 54.0702 17.7031 55.7579 17.7031C57.3929 17.7031 59.0129 18.3187 60.7132 19.5861C60.7633 19.6245 60.8285 19.6398 60.8912 19.6298C60.9564 19.6203 61.0116 19.5854 61.0492 19.533L62.8196 17.0373C62.8924 16.9345 62.8723 16.7928 62.7745 16.7143C60.7508 15.0911 58.4738 14.3019 55.8106 14.3019C51.896 14.3019 49.1601 16.6514 49.1601 20.013C49.1601 23.6178 51.5199 24.8942 55.5974 25.8795C59.0656 26.6787 59.6524 27.3483 59.6524 28.545C59.6524 29.8716 58.4687 30.6966 56.5629 30.6966C54.4464 30.6966 52.7185 29.9819 50.7876 28.3118C50.74 28.2691 50.6748 28.2516 50.6146 28.2541C50.5494 28.2591 50.4917 28.2892 50.4516 28.3368L48.4655 30.6991C48.3827 30.7994 48.3927 30.9449 48.488 31.0301C50.7349 33.0363 53.4984 34.0945 56.4826 34.0945C60.7006 34.0945 63.4265 31.79 63.4265 28.2215C63.434 25.2105 61.631 23.5428 57.2149 22.4685L57.2074 22.4653ZM72.9709 18.8893C71.1428 18.8893 69.6431 19.6095 68.4043 21.0853V19.4242C68.4043 19.293 68.299 19.1862 68.1686 19.1862H64.9211C64.7907 19.1862 64.6854 19.293 64.6854 19.4242V37.8812C64.6854 38.0116 64.7907 38.1194 64.9211 38.1194H68.1686C68.299 38.1194 68.4043 38.0116 68.4043 37.8812V32.0558C69.6431 33.4425 71.1428 34.1221 72.9709 34.1221C76.3688 34.1221 79.8094 31.5066 79.8094 26.5064C79.8144 21.5053 76.3739 18.889 72.9734 18.889L72.9709 18.8893ZM76.0328 26.5064C76.0328 29.0515 74.4655 30.8295 72.2186 30.8295C69.9992 30.8295 68.3241 28.9713 68.3241 26.5064C68.3241 24.0414 69.9992 22.1836 72.2186 22.1836C74.4279 22.1834 76.0328 24.001 76.0328 26.5062V26.5064ZM88.6241 18.8893C84.2481 18.8893 80.82 22.2586 80.82 26.5609C80.82 30.817 84.2255 34.1497 88.5714 34.1497C92.9624 34.1497 96.4005 30.7919 96.4005 26.5064C96.4005 22.2356 92.985 18.8898 88.6241 18.8898V18.8893ZM88.6241 30.8546C86.2969 30.8546 84.5415 28.9838 84.5415 26.5052C84.5415 24.0153 86.2367 22.2085 88.5714 22.2085C90.9136 22.2085 92.679 24.0785 92.679 26.5596C92.679 29.049 90.9738 30.8546 88.6241 30.8546ZM105.744 19.1862H102.171V15.5334C102.171 15.4025 102.065 15.2957 101.935 15.2957H98.6875C98.5571 15.2957 98.4493 15.4025 98.4493 15.5334V19.1862H96.8895C96.7591 19.1862 96.6538 19.293 96.6538 19.4242V22.2145C96.6538 22.3454 96.7591 22.4525 96.8895 22.4525H98.4493V29.6734C98.4493 32.5899 99.9013 34.0695 102.768 34.0695C103.931 34.0695 104.897 33.8287 105.807 33.3121C105.882 33.272 105.927 33.1918 105.927 33.1065V30.4483C105.927 30.3681 105.885 30.2903 105.814 30.2477C105.744 30.2026 105.656 30.2001 105.584 30.2377C104.959 30.5511 104.355 30.6966 103.678 30.6966C102.637 30.6966 102.171 30.2226 102.171 29.1644V22.4537H105.744C105.875 22.4537 105.98 22.3469 105.98 22.2157V19.4257C105.985 19.2945 105.88 19.1877 105.747 19.1877L105.744 19.1862ZM118.193 19.2005V18.7518C118.193 17.432 118.699 16.8435 119.833 16.8435C120.51 16.8435 121.054 16.9779 121.663 17.181C121.738 17.2046 121.816 17.1928 121.876 17.1479C121.939 17.103 121.974 17.031 121.974 16.9548V14.2189C121.974 14.1143 121.909 14.0218 121.806 13.9909C121.164 13.7996 120.342 13.6032 119.108 13.6032C116.111 13.6032 114.524 15.2919 114.524 18.485V19.1721H112.964C112.834 19.1721 112.726 19.279 112.726 19.4099V22.2145C112.726 22.3454 112.834 22.4525 112.964 22.4525H114.524V33.588C114.524 33.7209 114.632 33.8262 114.762 33.8262H118.007C118.14 33.8262 118.245 33.7209 118.245 33.588V22.4532H121.277L125.921 33.588C125.395 34.7566 124.876 34.9898 124.168 34.9898C123.597 34.9898 122.992 34.8193 122.378 34.4807C122.32 34.4506 122.25 34.4456 122.19 34.4632C122.127 34.4858 122.075 34.5309 122.049 34.5911L120.949 37.006C120.896 37.1214 120.941 37.2543 121.051 37.3145C122.2 37.9364 123.236 38.2022 124.517 38.2022C126.914 38.2022 128.241 37.0837 129.407 34.0795L135.039 19.5255C135.07 19.4522 135.059 19.3695 135.014 19.3045C134.972 19.2401 134.899 19.2012 134.821 19.2012H131.441C131.338 19.2012 131.248 19.2657 131.215 19.3607L127.752 29.2496L123.96 19.3542C123.925 19.2622 123.837 19.2012 123.74 19.2012H118.193V19.2005ZM110.975 19.1862H107.728C107.597 19.1862 107.49 19.293 107.49 19.4242V33.588C107.49 33.7209 107.597 33.8262 107.728 33.8262H110.975C111.106 33.8262 111.214 33.7209 111.214 33.588V19.4252C111.214 19.294 111.108 19.1872 110.975 19.1872V19.1862ZM109.37 12.7366C108.084 12.7366 107.041 13.7778 107.041 15.064C107.041 16.3509 108.084 17.3934 109.37 17.3934C110.657 17.3934 111.698 16.3509 111.698 15.064C111.698 13.778 110.654 12.7366 109.37 12.7366ZM137.813 23.7404C136.529 23.7404 135.528 22.7085 135.528 21.4554C135.528 20.2023 136.542 19.1586 137.826 19.1586C139.109 19.1586 140.11 20.1903 140.11 21.4424C140.11 22.6955 139.097 23.7404 137.813 23.7404ZM137.826 19.3858C136.654 19.3858 135.769 20.3161 135.769 21.4554C135.769 22.5942 136.649 23.512 137.813 23.512C138.984 23.512 139.869 22.5824 139.869 21.4424C139.869 20.3036 138.989 19.3858 137.826 19.3858ZM138.332 21.6773L138.979 22.5821H138.432L137.851 21.7521H137.352V22.5821H136.895V20.1837H137.963C138.523 20.1837 138.889 20.4689 138.889 20.9488C138.891 21.3421 138.663 21.5823 138.335 21.6773H138.332ZM137.946 20.5953H137.352V21.3538H137.946C138.242 21.3538 138.42 21.2086 138.42 20.9742C138.42 20.7274 138.242 20.5953 137.946 20.5953Z" fill="#1ED760"/>
</g>
<path d="M344.238 25.6501C344.238 30.9734 340.073 34.896 334.963 34.896C329.852 34.896 325.688 30.9734 325.688 25.6501C325.688 20.2894 329.852 16.4043 334.963 16.4043C340.073 16.4043 344.238 20.2894 344.238 25.6501ZM340.177 25.6501C340.177 22.3236 337.764 20.0476 334.963 20.0476C332.161 20.0476 329.748 22.3236 329.748 25.6501C329.748 28.9433 332.161 31.2527 334.963 31.2527C337.764 31.2527 340.177 28.9391 340.177 25.6501Z" fill="#EA4335"/>
<path d="M364.247 25.6501C364.247 30.9734 360.082 34.896 354.972 34.896C349.861 34.896 345.697 30.9734 345.697 25.6501C345.697 20.2936 349.861 16.4043 354.972 16.4043C360.082 16.4043 364.247 20.2894 364.247 25.6501ZM360.187 25.6501C360.187 22.3236 357.773 20.0476 354.972 20.0476C352.171 20.0476 349.757 22.3236 349.757 25.6501C349.757 28.9433 352.171 31.2527 354.972 31.2527C357.773 31.2527 360.187 28.9391 360.187 25.6501Z" fill="#FBBC05"/>
<path d="M383.422 16.9629V33.562C383.422 40.3901 379.396 43.1789 374.635 43.1789C370.154 43.1789 367.457 40.1817 366.44 37.7306L369.975 36.2591C370.604 37.7639 372.147 39.5397 374.631 39.5397C377.678 39.5397 379.567 37.6597 379.567 34.1206V32.7909H379.425C378.516 33.9122 376.765 34.8918 374.556 34.8918C369.933 34.8918 365.698 30.865 365.698 25.6835C365.698 20.4645 369.933 16.4043 374.556 16.4043C376.761 16.4043 378.512 17.3839 379.425 18.4719H379.567V16.9671H383.422V16.9629ZM379.854 25.6835C379.854 22.4278 377.682 20.0476 374.919 20.0476C372.117 20.0476 369.77 22.4278 369.77 25.6835C369.77 28.9058 372.117 31.2527 374.919 31.2527C377.682 31.2527 379.854 28.9058 379.854 25.6835Z" fill="#4285F4"/>
<path d="M389.779 7.23364V34.3292H385.819V7.23364H389.779Z" fill="#34A853"/>
<path d="M405.211 28.6932L408.363 30.7941C407.346 32.299 404.895 34.8918 400.659 34.8918C395.407 34.8918 391.484 30.8317 391.484 25.646C391.484 20.1477 395.44 16.4001 400.205 16.4001C405.003 16.4001 407.35 20.2185 408.117 22.282L408.538 23.3324L396.178 28.4514C397.124 30.3064 398.596 31.2527 400.659 31.2527C402.727 31.2527 404.161 30.2356 405.211 28.6932ZM395.511 25.3667L403.773 21.936C403.319 20.7813 401.952 19.9768 400.343 19.9768C398.279 19.9768 395.407 21.7984 395.511 25.3667Z" fill="#EA4335"/>
<path d="M310.697 23.2447V19.3221H323.916C324.045 20.0058 324.112 20.8145 324.112 21.6899C324.112 24.6329 323.307 28.272 320.714 30.8648C318.193 33.491 314.97 34.8917 310.702 34.8917C302.79 34.8917 296.137 28.4471 296.137 20.5352C296.137 12.6233 302.79 6.17871 310.702 6.17871C315.079 6.17871 318.197 7.89615 320.539 10.1347L317.771 12.9026C316.092 11.3269 313.816 10.1013 310.697 10.1013C304.92 10.1013 300.401 14.7576 300.401 20.5352C300.401 26.3128 304.92 30.9691 310.697 30.9691C314.445 30.9691 316.579 29.4642 317.947 28.0969C319.055 26.9881 319.785 25.4041 320.073 23.2406L310.697 23.2447Z" fill="#4285F4"/>
<g clip-path="url(#clip1_1_658)">
<path d="M569.143 28.8547C569.448 29.6623 569.869 30.3528 570.407 30.9263C570.946 31.4998 571.584 31.9387 572.321 32.243C573.058 32.5474 573.86 32.6995 574.726 32.6995C575.569 32.6995 576.359 32.5415 577.096 32.2254C577.834 31.9094 578.477 31.4646 579.027 30.8912C579.577 30.3176 580.005 29.633 580.309 28.8371C580.613 28.0412 580.765 27.1518 580.765 26.1686V11H584.452V35.5787H580.801V33.2963C579.981 34.1624 579.016 34.8295 577.904 35.2978C576.792 35.7659 575.592 36 574.305 36C572.994 36 571.771 35.7717 570.636 35.3153C569.5 34.8588 568.517 34.2093 567.686 33.3666C566.855 32.5238 566.2 31.5116 565.72 30.3294C565.24 29.1473 565 27.8306 565 26.3792V11H568.687V26.1686C568.687 27.1518 568.839 28.0471 569.143 28.8547Z" fill="#010202"/>
<path d="M590.807 11V19.9536C591.627 19.1344 592.575 18.4848 593.651 18.0049C594.728 17.525 595.899 17.2851 597.163 17.2851C598.474 17.2851 599.702 17.5308 600.849 18.0224C601.996 18.514 602.991 19.1811 603.834 20.0239C604.677 20.8666 605.344 21.8614 605.835 23.0084C606.327 24.1555 606.573 25.3727 606.573 26.6601C606.573 27.9475 606.327 29.1589 605.835 30.2942C605.344 31.4295 604.677 32.4186 603.834 33.2611C602.991 34.1039 601.996 34.771 600.849 35.2626C599.702 35.7542 598.473 35.9999 597.163 35.9999C595.899 35.9999 594.722 35.76 593.634 35.2801C592.545 34.8003 591.591 34.1507 590.772 33.3314V35.5786H587.261V11H590.807ZM591.211 29.0829C591.527 29.832 591.966 30.4874 592.528 31.0492C593.09 31.611 593.745 32.0558 594.494 32.3835C595.243 32.7112 596.051 32.8751 596.917 32.8751C597.76 32.8751 598.555 32.7112 599.305 32.3835C600.054 32.0558 600.703 31.6111 601.253 31.0492C601.803 30.4875 602.242 29.832 602.57 29.0829C602.898 28.3338 603.062 27.5263 603.062 26.6601C603.062 25.794 602.898 24.9806 602.57 24.2198C602.242 23.459 601.803 22.7978 601.253 22.236C600.703 21.6742 600.054 21.2353 599.305 20.9193C598.555 20.6033 597.76 20.4452 596.917 20.4452C596.074 20.4452 595.278 20.6032 594.529 20.9193C593.78 21.2353 593.125 21.6742 592.563 22.236C592.001 22.7978 591.556 23.459 591.229 24.2198C590.901 24.9806 590.737 25.794 590.737 26.6601C590.737 27.5263 590.895 28.3338 591.211 29.0829Z" fill="#010202"/>
<path d="M608.574 23.0435C609.042 21.9199 609.686 20.931 610.505 20.0766C611.324 19.2222 612.296 18.5492 613.419 18.0576C614.543 17.5661 615.76 17.3203 617.071 17.3203C618.358 17.3203 619.552 17.5544 620.652 18.0225C621.753 18.4907 622.701 19.1403 623.496 19.9713C624.292 20.8022 624.913 21.7854 625.357 22.9207C625.802 24.056 626.025 25.2908 626.025 26.6251V27.7838H611.453C611.57 28.5095 611.804 29.1825 612.155 29.8027C612.506 30.423 612.945 30.9614 613.472 31.4179C613.999 31.8744 614.595 32.2314 615.263 32.4888C615.93 32.7463 616.638 32.8751 617.387 32.8751C619.517 32.8751 621.238 31.9972 622.549 30.2416L625.112 32.1376C624.222 33.3315 623.122 34.2678 621.811 34.9466C620.5 35.6255 619.026 35.9649 617.387 35.9649C616.053 35.9649 614.806 35.7307 613.648 35.2626C612.489 34.7945 611.482 34.139 610.628 33.2963C609.774 32.4535 609.101 31.4646 608.609 30.3293C608.117 29.1941 607.872 27.9592 607.872 26.625C607.871 25.361 608.106 24.1671 608.574 23.0435ZM613.507 21.6565C612.512 22.4876 611.851 23.5936 611.523 24.9747H622.443C622.139 23.5936 621.489 22.4876 620.494 21.6565C619.5 20.8256 618.335 20.4101 617.001 20.4101C615.666 20.4101 614.502 20.8256 613.507 21.6565Z" fill="#010202"/>
<path d="M632.661 22.0604C631.912 22.8797 631.537 23.9915 631.537 25.3961V35.5788H627.991V17.6714H631.502V19.8835C631.947 19.1578 632.526 18.5843 633.24 18.163C633.954 17.7415 634.802 17.5308 635.786 17.5308H637.015V20.8314H635.54C634.369 20.8315 633.41 21.2411 632.661 22.0604Z" fill="#010202"/>
</g>
<path d="M956.858 21.8339V18.9522H953.279V14.4722L953.159 14.5093L949.798 15.5377L949.731 15.5579V18.9523H944.426V17.0613C944.426 16.1808 944.623 15.507 945.011 15.0576C945.396 14.6136 945.948 14.3879 946.65 14.3879C947.156 14.3879 947.679 14.507 948.206 14.7417L948.338 14.8007V11.7659L948.276 11.743C947.784 11.5665 947.116 11.4775 946.288 11.4775C945.244 11.4775 944.296 11.7047 943.469 12.1548C942.641 12.6056 941.99 13.2492 941.534 14.0674C941.08 14.8847 940.849 15.8286 940.849 16.8732V18.9522H938.357V21.8339H940.849V33.9739H944.426V21.8339H949.731V29.5486C949.731 32.726 951.23 34.3361 954.186 34.3361C954.671 34.3361 955.183 34.2792 955.704 34.1677C956.236 34.0533 956.598 33.939 956.811 33.817L956.858 33.7891V30.8807L956.712 30.977C956.518 31.1063 956.276 31.212 955.993 31.2907C955.708 31.3707 955.471 31.4108 955.286 31.4108C954.594 31.4108 954.082 31.2242 953.764 30.856C953.442 30.4845 953.279 29.8348 953.279 28.9259V21.8339H956.858ZM930.369 31.4113C929.071 31.4113 928.047 30.9808 927.326 30.1327C926.6 29.2804 926.232 28.0653 926.232 26.5214C926.232 24.9286 926.6 23.6819 927.326 22.8146C928.048 21.9529 929.062 21.5156 930.34 21.5156C931.58 21.5156 932.568 21.9332 933.275 22.7577C933.986 23.5863 934.346 24.823 934.346 26.4344C934.346 28.0656 934.007 29.3186 933.338 30.1568C932.674 30.9887 931.675 31.4113 930.369 31.4113ZM930.528 18.5903C928.051 18.5903 926.084 19.3161 924.681 20.7476C923.279 22.1793 922.568 24.1605 922.568 26.6367C922.568 28.9886 923.262 30.8804 924.631 32.2587C925.999 33.6374 927.862 34.3358 930.166 34.3358C932.567 34.3358 934.495 33.5998 935.897 32.1485C937.299 30.6988 938.01 28.7363 938.01 26.3179C938.01 23.9292 937.343 22.0233 936.028 20.6542C934.712 19.2846 932.862 18.5903 930.528 18.5903ZM916.801 18.5903C915.116 18.5903 913.722 19.0213 912.658 19.8711C911.586 20.7259 911.043 21.847 911.043 23.2037C911.043 23.9089 911.16 24.5353 911.391 25.0667C911.623 25.5997 911.983 26.0691 912.46 26.463C912.934 26.8537 913.665 27.2629 914.634 27.6793C915.449 28.0146 916.057 28.2982 916.443 28.5217C916.82 28.7407 917.088 28.9609 917.239 29.1754C917.386 29.3852 917.46 29.6724 917.46 30.0269C917.46 31.0361 916.704 31.5271 915.149 31.5271C914.572 31.5271 913.915 31.4067 913.194 31.1692C912.478 30.9354 911.803 30.5929 911.191 30.1538L911.043 30.0473V33.4912L911.097 33.5166C911.603 33.7502 912.241 33.9473 912.994 34.1023C913.744 34.2575 914.426 34.3364 915.019 34.3364C916.847 34.3364 918.32 33.9034 919.394 33.0485C920.475 32.1878 921.023 31.0402 921.023 29.6366C921.023 28.6241 920.728 27.7558 920.147 27.0555C919.569 26.3609 918.567 25.7232 917.169 25.1595C916.055 24.7125 915.342 24.3415 915.048 24.0566C914.764 23.7815 914.62 23.3923 914.62 22.8995C914.62 22.4627 914.798 22.1127 915.163 21.8293C915.531 21.5444 916.043 21.3996 916.685 21.3996C917.281 21.3996 917.891 21.4937 918.497 21.6782C919.103 21.8627 919.636 22.1098 920.08 22.4121L920.226 22.512V19.2451L920.17 19.221C919.76 19.0452 919.219 18.8948 918.563 18.7727C917.909 18.6515 917.317 18.5903 916.801 18.5903ZM901.718 31.4113C900.42 31.4113 899.396 30.9808 898.675 30.1327C897.949 29.2804 897.581 28.0656 897.581 26.5214C897.581 24.9286 897.949 23.6819 898.675 22.8146C899.397 21.9529 900.41 21.5156 901.689 21.5156C902.929 21.5156 903.916 21.9332 904.624 22.7577C905.335 23.5863 905.695 24.823 905.695 26.4344C905.695 28.0656 905.356 29.3186 904.687 30.1568C904.023 30.9887 903.024 31.4113 901.718 31.4113ZM901.877 18.5903C899.4 18.5903 897.432 19.3161 896.03 20.7476C894.628 22.1793 893.917 24.1605 893.917 26.6367C893.917 28.9896 894.611 30.8804 895.98 32.2587C897.348 33.6374 899.211 34.3358 901.515 34.3358C903.916 34.3358 905.844 33.5998 907.247 32.1485C908.648 30.6988 909.359 28.7363 909.359 26.3179C909.359 23.9292 908.692 22.0233 907.377 20.6542C906.061 19.2846 904.21 18.5903 901.877 18.5903ZM888.487 21.5536V18.9522H884.954V33.9736H888.487V26.2895C888.487 24.983 888.783 23.9095 889.368 23.0988C889.945 22.2977 890.714 21.8917 891.653 21.8917C891.971 21.8917 892.329 21.9442 892.716 22.048C893.099 22.1512 893.376 22.2633 893.54 22.3812L893.688 22.4888V18.9265L893.631 18.9019C893.302 18.7621 892.836 18.6916 892.247 18.6916C891.359 18.6916 890.565 18.9769 889.884 19.5387C889.287 20.0324 888.855 20.7094 888.525 21.5536H888.487ZM878.626 18.5903C877.005 18.5903 875.559 18.9379 874.329 19.6231C873.097 20.31 872.143 21.2905 871.495 22.5373C870.849 23.7811 870.522 25.234 870.522 26.8543C870.522 28.2736 870.839 29.5761 871.468 30.724C872.096 31.8738 872.986 32.7733 874.112 33.3972C875.236 34.0203 876.536 34.3362 877.975 34.3362C879.654 34.3362 881.088 34.0005 882.237 33.3384L882.283 33.3118V30.0746L882.135 30.183C881.614 30.5623 881.032 30.8651 880.406 31.0832C879.782 31.3011 879.212 31.4113 878.713 31.4113C877.327 31.4113 876.214 30.9774 875.406 30.1221C874.596 29.2657 874.185 28.0631 874.185 26.5498C874.185 25.027 874.614 23.7935 875.457 22.8834C876.299 21.9759 877.414 21.5156 878.771 21.5156C879.933 21.5156 881.065 21.9088 882.135 22.6855L882.283 22.7932V19.3822L882.236 19.3553C881.833 19.1297 881.283 18.9435 880.601 18.8022C879.922 18.6613 879.257 18.5903 878.626 18.5903ZM868.088 18.9523H864.554V33.9736H868.088V18.9523ZM866.357 12.5532C865.776 12.5532 865.269 12.7512 864.852 13.1435C864.433 13.5369 864.221 14.0322 864.221 14.6168C864.221 15.1922 864.431 15.6785 864.845 16.0615C865.257 16.4433 865.766 16.6368 866.358 16.6368C866.949 16.6368 867.46 16.4433 867.876 16.0621C868.296 15.6785 868.508 15.1923 868.508 14.6168C868.508 14.0527 868.301 13.5624 867.894 13.1593C867.486 12.757 866.969 12.5532 866.357 12.5532ZM857.541 17.844V33.9736H861.147V13.013H856.156L849.812 28.5819L843.656 13.013H838.462V33.9734H841.851V17.8425H841.967L848.468 33.9736H851.025L857.425 17.844H857.541Z" fill="#706D6E"/>
<path d="M809.622 22.6313H793V6.00879H809.622V22.6313Z" fill="#F1511B"/>
<path d="M827.976 22.6313H811.354V6.00879H827.976V22.6313Z" fill="#80CC28"/>
<path d="M809.622 40.991H793V24.3687H809.622V40.991Z" fill="#00ADEF"/>
<path d="M827.976 40.991H811.354V24.3687H827.976V40.991Z" fill="#FBBC09"/>
<path d="M1140.15 11.8838C1140.13 11.7068 1139.97 11.6057 1139.85 11.6057C1139.72 11.6057 1137.22 11.5551 1137.22 11.5551C1137.22 11.5551 1135.12 9.53273 1134.92 9.30521C1134.72 9.10297 1134.31 9.15353 1134.16 9.20409C1134.16 9.20409 1133.75 9.33049 1133.1 9.53273C1133 9.17881 1132.82 8.74905 1132.59 8.29401C1131.86 6.87834 1130.75 6.11994 1129.43 6.11994C1129.33 6.11994 1129.25 6.11994 1129.15 6.14522C1129.1 6.09466 1129.08 6.0441 1129.03 6.01882C1128.45 5.41211 1127.71 5.10875 1126.83 5.13403C1125.13 5.18459 1123.44 6.4233 1122.05 8.59737C1121.09 10.1394 1120.36 12.0607 1120.13 13.5522C1118.18 14.1589 1116.82 14.5887 1116.77 14.5887C1115.78 14.8921 1115.76 14.9173 1115.63 15.8527C1115.58 16.5605 1113 36.5064 1113 36.5064L1134.64 40.2478L1144.02 37.922C1143.99 37.922 1140.18 12.0607 1140.15 11.8838ZM1132.01 9.88665C1131.5 10.0383 1130.95 10.2153 1130.34 10.4175C1130.34 9.55801 1130.22 8.34457 1129.84 7.33338C1131.13 7.53562 1131.76 9.00185 1132.01 9.88665ZM1129.2 10.7462C1128.07 11.1001 1126.83 11.4793 1125.59 11.8585C1125.94 10.5186 1126.6 9.20409 1127.41 8.31929C1127.71 7.99065 1128.14 7.63674 1128.62 7.4345C1129.13 8.42041 1129.23 9.81081 1129.2 10.7462ZM1126.88 6.27162C1127.28 6.27162 1127.61 6.34746 1127.89 6.5497C1127.43 6.77722 1126.98 7.13114 1126.58 7.58618C1125.49 8.74905 1124.65 10.5439 1124.33 12.2882C1123.29 12.6169 1122.28 12.9202 1121.37 13.1983C1121.97 10.4428 1124.27 6.34746 1126.88 6.27162Z" fill="#95BF47"/>
<path d="M1139.85 11.6058C1139.72 11.6058 1137.22 11.5553 1137.22 11.5553C1137.22 11.5553 1135.12 9.53287 1134.92 9.30535C1134.84 9.22951 1134.74 9.17896 1134.64 9.17896V40.2479L1144.02 37.9222C1144.02 37.9222 1140.2 12.0609 1140.18 11.8839C1140.13 11.7069 1139.97 11.6058 1139.85 11.6058Z" fill="#5E8E3E"/>
<path d="M1129.43 16.4339L1128.35 20.504C1128.35 20.504 1127.13 19.9479 1125.69 20.049C1123.57 20.1754 1123.57 21.5152 1123.57 21.8438C1123.69 23.664 1128.47 24.0685 1128.75 28.3408C1128.95 31.703 1126.98 34.0035 1124.1 34.1804C1120.66 34.3574 1118.76 32.335 1118.76 32.335L1119.5 29.2256C1119.5 29.2256 1121.42 30.6665 1122.94 30.5654C1123.92 30.5148 1124.3 29.6806 1124.25 29.1244C1124.1 26.7481 1120.21 26.8998 1119.95 22.9814C1119.75 19.6951 1121.9 16.3834 1126.65 16.08C1128.5 15.9536 1129.43 16.4339 1129.43 16.4339Z" fill="white"/>
<path d="M1156.71 25.1052C1155.62 24.5238 1155.07 24.0182 1155.07 23.3356C1155.07 22.4761 1155.85 21.9199 1157.06 21.9199C1158.48 21.9199 1159.74 22.5014 1159.74 22.5014L1160.73 19.4678C1160.73 19.4678 1159.82 18.76 1157.14 18.76C1153.4 18.76 1150.79 20.9088 1150.79 23.9171C1150.79 25.6361 1152.01 26.9254 1153.63 27.8607C1154.94 28.5938 1155.39 29.1247 1155.39 29.9084C1155.39 30.7173 1154.74 31.3746 1153.52 31.3746C1151.73 31.3746 1150.01 30.4393 1150.01 30.4393L1148.95 33.4728C1148.95 33.4728 1150.52 34.5346 1153.17 34.5346C1157.01 34.5346 1159.79 32.6386 1159.79 29.2258C1159.77 27.3804 1158.38 26.0658 1156.71 25.1052Z" fill="black"/>
<path d="M1172.03 18.7096C1170.13 18.7096 1168.64 19.6197 1167.5 20.9848L1167.45 20.9595L1169.1 12.3644H1164.82L1160.65 34.2567H1164.93L1166.34 26.7739C1166.9 23.9426 1168.36 22.1982 1169.73 22.1982C1170.69 22.1982 1171.07 22.8555 1171.07 23.7909C1171.07 24.3723 1171.02 25.1054 1170.89 25.6869L1169.27 34.2567H1173.55L1175.21 25.4088C1175.39 24.4734 1175.52 23.3611 1175.52 22.6027C1175.54 20.1759 1174.28 18.7096 1172.03 18.7096Z" fill="black"/>
<path d="M1185.22 18.7093C1180.07 18.7093 1176.65 23.3607 1176.65 28.5431C1176.65 31.8548 1178.7 34.5344 1182.54 34.5344C1187.6 34.5344 1191.01 30.0094 1191.01 24.7006C1191.04 21.6417 1189.24 18.7093 1185.22 18.7093ZM1183.13 31.2733C1181.66 31.2733 1181.05 30.0346 1181.05 28.4673C1181.05 26.0151 1182.32 22.0209 1184.64 22.0209C1186.16 22.0209 1186.67 23.3355 1186.67 24.5995C1186.67 27.2286 1185.38 31.2733 1183.13 31.2733Z" fill="black"/>
<path d="M1201.99 18.7093C1199.1 18.7093 1197.46 21.2625 1197.46 21.2625H1197.41L1197.66 18.962H1193.87C1193.69 20.5041 1193.34 22.8804 1193.01 24.65L1190.03 40.3235H1194.3L1195.49 33.9783H1195.59C1195.59 33.9783 1196.47 34.5345 1198.09 34.5345C1203.12 34.5345 1206.41 29.3774 1206.41 24.1697C1206.41 21.2878 1205.12 18.7093 1201.99 18.7093ZM1197.89 31.3239C1196.78 31.3239 1196.12 30.6919 1196.12 30.6919L1196.83 26.6977C1197.33 24.018 1198.72 22.2484 1200.22 22.2484C1201.53 22.2484 1201.94 23.4619 1201.94 24.5995C1201.94 27.3802 1200.29 31.3239 1197.89 31.3239Z" fill="black"/>
<path d="M1212.53 12.5665C1211.16 12.5665 1210.07 13.6536 1210.07 15.044C1210.07 16.3079 1210.88 17.1927 1212.1 17.1927H1212.15C1213.49 17.1927 1214.62 16.2827 1214.65 14.7153C1214.65 13.4766 1213.82 12.5665 1212.53 12.5665Z" fill="black"/>
<path d="M1206.54 34.2312H1210.81L1213.72 19.0633H1209.42L1206.54 34.2312Z" fill="black"/>
<path d="M1224.61 19.0383H1221.63L1221.78 18.3304C1222.03 16.8642 1222.89 15.5749 1224.33 15.5749C1225.09 15.5749 1225.7 15.8025 1225.7 15.8025L1226.53 12.4402C1226.53 12.4402 1225.8 12.061 1224.21 12.061C1222.69 12.061 1221.17 12.4908 1220.01 13.4767C1218.54 14.7154 1217.86 16.5103 1217.53 18.3304L1217.41 19.0383H1215.41L1214.78 22.2741H1216.77L1214.5 34.2568H1218.77L1221.05 22.2741H1224L1224.61 19.0383Z" fill="black"/>
<path d="M1234.92 19.0633C1234.92 19.0633 1232.24 25.813 1231.06 29.5039H1231.01C1230.93 28.3157 1229.94 19.0633 1229.94 19.0633H1225.44L1228.02 32.9925C1228.07 33.2959 1228.05 33.4981 1227.92 33.7004C1227.42 34.661 1226.58 35.5963 1225.6 36.2789C1224.79 36.8603 1223.88 37.2395 1223.17 37.4923L1224.36 41.1326C1225.22 40.9557 1227.04 40.2226 1228.55 38.8069C1230.5 36.9867 1232.32 34.1554 1234.17 30.3129L1239.4 19.0633H1234.92Z" fill="black"/>
<defs>
<clipPath id="clip0_1_658">
<rect width="140" height="48" fill="white"/>
</clipPath>
<clipPath id="clip1_1_658">
<rect width="72" height="48" fill="white" transform="translate(565)"/>
</clipPath>
</defs>
</svg>
