<svg width="1240" height="48" viewBox="0 0 1240 48" fill="none" xmlns="http://www.w3.org/2000/svg">
<path d="M39.6255 32.5723L40.64 32.3634C41.5352 32.1247 41.7739 32.0054 41.7739 30.215V16.161C41.7739 14.3707 41.5053 14.2215 40.64 14.0126L39.6255 13.8037V12.9683H55.7981L56.0965 18.9062H55.1715C54.4255 17.265 53.9481 16.3997 53.5005 15.7433C52.5456 14.3707 51.919 14.2513 49.8602 14.2513C48.3384 14.2513 47.5924 14.4304 47.1448 14.5497V22.1586H47.9505C50.0392 22.1586 50.5166 21.9199 50.8747 21.2634C51.2924 20.5175 51.5311 19.9505 51.7997 18.9957H52.6948V26.6941H51.7997C51.5311 25.7691 51.2924 25.1723 50.8747 24.307C50.5166 23.561 50.1287 23.4118 47.9505 23.4118H47.1448V29.1408C47.1448 31.7965 47.2344 32.0949 50.1287 32.0949C52.5158 32.0949 52.9932 31.7965 53.9779 30.3344C54.515 29.5287 55.0819 28.2755 55.8577 26.3957H56.8126L56.3948 33.4078H39.6553L39.6255 32.5723ZM59.319 21.3828C58.6327 19.7118 58.3045 19.2941 57.5585 19.0554L56.9916 18.8763V18.1005H65.8537V18.8763L65.0481 19.0852C64.4215 19.2642 64.1231 19.5626 64.1231 20.2787C64.1231 20.6965 64.2723 21.2037 64.511 21.8602L66.9876 28.6634H67.1368L69.5239 21.8602C69.7924 21.1441 69.9118 20.6368 69.9118 20.2191C69.9118 19.5626 69.6134 19.2344 68.9868 19.0852L68.1811 18.8763V18.1005H73.6416V18.8763L73.0747 19.0554C72.2989 19.3239 71.9706 19.7715 71.2545 21.711L66.6892 33.4078H64.1827L59.319 21.3828ZM72.9553 25.6796C72.9553 20.5473 76.7448 17.7126 80.6537 17.7126C84.7118 17.7126 87.2481 19.7416 87.3376 25.0828H77.5803C77.6698 29.9166 79.49 31.2296 82.5335 31.2296C84.3537 31.2296 85.7561 30.6925 86.8602 30.1255V31.1102C85.8158 32.2441 83.5779 33.7957 80.6239 33.7957C75.4916 33.736 72.9553 30.6925 72.9553 25.6796ZM77.5803 23.9489L82.6231 23.6804C82.6231 20.1296 82.1456 18.8166 80.3852 18.8166C78.8932 18.8166 77.6997 20.2489 77.5803 23.9489ZM95.0956 19.9804C95.9311 19.0852 97.6319 17.6231 99.6013 17.6231C100.855 17.6231 101.899 18.6376 101.899 19.9207C101.899 21.2037 100.884 22.2183 99.6013 22.2183C98.6763 22.2183 97.8408 21.6513 97.5126 20.8457C97.3335 20.5175 96.9456 20.4279 96.6771 20.4279C96.14 20.4279 95.5134 20.8158 95.1255 21.1739V30.7223C95.1255 32.0949 95.2448 32.2441 96.14 32.3933L97.1247 32.6021V33.4078H88.6206V32.6021L89.3965 32.3933C90.3811 32.1247 90.5005 31.9755 90.5005 30.7223V21.5618C90.5005 20.3086 90.3513 20.2191 89.5158 19.6521L88.5311 18.9957V18.3989L94.7376 17.6828L95.0658 17.9215L95.0061 19.9505L95.0956 19.9804ZM102.794 32.6021L103.57 32.3933C104.555 32.1247 104.674 31.9755 104.674 30.7223V21.5618C104.674 20.3086 104.525 20.2191 103.689 19.6521L102.705 18.9957V18.3989L108.911 17.6828L109.239 17.8916L109.18 19.7715H109.299C110.85 18.6675 112.79 17.6828 114.938 17.6828C117.445 17.6828 118.788 18.9658 118.788 21.6215V30.6925C118.788 31.9755 118.907 32.1247 119.862 32.3634L120.638 32.5723V33.3779H112.432V32.5723L113.148 32.3933C114.043 32.1546 114.133 32.065 114.133 30.6925V22.7852C114.133 20.9949 113.476 20.4279 112.104 20.4279C111.059 20.4279 110.015 20.6666 109.359 20.8158V30.7223C109.359 32.1247 109.448 32.1844 110.343 32.4231L111.059 32.6021V33.4078H102.854V32.6021H102.794ZM121.205 25.7691C121.205 20.1296 125.203 17.7126 129.171 17.7126C133.438 17.7126 137.168 20.2787 137.168 25.6199C137.168 31.2594 133.23 33.736 129.171 33.736C124.905 33.736 121.205 31.1699 121.205 25.7691ZM132.215 25.9183C132.215 19.9804 131.081 18.8465 129.052 18.8465C127.202 18.8465 126.098 20.1892 126.098 25.2618C126.098 31.2892 127.083 32.6021 129.231 32.6021C130.992 32.6021 132.215 31.5578 132.215 25.9183ZM139.705 29.6779V19.8312H137.855V19.115C140.152 18.2199 141.913 16.5191 142.748 14.1618H144.419V18.1005H148.328L147.94 19.8312H144.419V29.3796C144.419 30.8416 144.867 31.4384 146.329 31.4384C147.045 31.4384 147.91 31.2892 148.447 31.1699V32.0054C147.731 32.6618 146.269 33.736 143.792 33.736C141.137 33.736 139.705 32.5723 139.705 29.6779ZM149.044 25.6796C149.044 20.5473 152.834 17.7126 156.742 17.7126C160.8 17.7126 163.337 19.7416 163.426 25.0828H153.699C153.788 29.9166 155.609 31.2296 158.652 31.2296C160.472 31.2296 161.875 30.6925 162.979 30.1255V31.1102C161.934 32.2441 159.696 33.7957 156.742 33.7957C151.58 33.736 149.044 30.6925 149.044 25.6796ZM153.669 23.9489L158.712 23.6804C158.712 20.1296 158.234 18.8166 156.474 18.8166C154.982 18.8166 153.788 20.2489 153.669 23.9489Z" fill="black"/>
<path d="M9.72774 15.2655C9.72774 15.6236 9.69791 16.2203 9.33984 16.6082C8.95194 16.9663 8.35516 16.9961 7.9971 16.9961H4.17775C3.07371 16.9961 2.41726 16.9961 1.96968 17.0558C1.73097 17.0857 1.43259 17.205 1.28339 17.2647C1.22371 17.2945 1.22371 17.2647 1.25355 17.2348L9.96645 8.37275C9.99629 8.34291 10.0261 8.34291 9.99629 8.40259C9.93662 8.55178 9.81726 8.85017 9.78742 9.08888C9.72775 9.53646 9.72774 10.1929 9.72774 11.2969V15.2655ZM17.8439 42.0606C16.8294 41.4042 16.2923 40.5389 16.0834 40.0018C15.8745 39.4945 15.7552 38.9276 15.7552 38.3607C15.7552 35.884 17.7842 33.855 20.2906 33.855C21.0366 33.855 21.6334 34.4518 21.6334 35.1978C21.6334 35.705 21.3648 36.1227 20.9471 36.3615C20.7979 36.451 20.589 36.5107 20.4398 36.5405C20.2906 36.5703 19.7237 36.63 19.4552 36.8687C19.1568 37.1074 18.9181 37.4953 18.9181 37.9131C18.9181 38.3607 19.0971 38.7784 19.3955 39.0768C19.9326 39.6139 20.6487 39.9123 21.4245 39.9123C23.4535 39.9123 25.0947 38.2711 25.0947 36.2421C25.0947 34.4219 23.8713 32.8107 22.26 32.0945C22.0213 31.9752 21.6334 31.8857 21.2753 31.7961C20.8277 31.7066 20.41 31.6469 20.3802 31.6469C19.1269 31.4977 15.9939 30.5131 15.785 27.7381C15.785 27.7381 14.86 31.9155 13.01 33.0494C12.831 33.1389 12.5923 33.2284 12.3237 33.2881C12.0552 33.3477 11.7568 33.3776 11.6673 33.3776C8.65355 33.5566 5.46081 32.6018 3.25275 30.334C3.25275 30.334 1.76081 29.1107 0.985005 25.6792C0.805973 24.8437 0.447908 23.3518 0.239037 21.9494C0.149521 21.4421 0.119682 21.0542 0.0898438 20.6961C0.0898438 19.234 0.985005 18.2494 2.11888 18.1002C2.14871 18.1002 2.23823 18.1002 2.29791 18.1002C2.9842 18.1002 8.20597 18.1002 8.20597 18.1002C9.25033 18.1002 9.8471 17.8316 10.235 17.4736C10.7423 16.9961 10.8616 16.3098 10.8616 15.5042C10.8616 15.5042 10.8616 10.0736 10.8616 9.38726C10.8616 9.35742 10.8616 9.23807 10.8616 9.20823C11.0108 8.1042 11.9955 7.1792 13.4576 7.1792C13.4576 7.1792 13.9052 7.1792 14.1737 7.1792C14.4721 7.1792 14.8302 7.20904 15.1584 7.23888C15.3971 7.26872 15.606 7.32839 15.964 7.41791C17.7842 7.86549 18.1721 9.71549 18.1721 9.71549C18.1721 9.71549 21.6035 10.3123 23.3342 10.6107C24.9753 10.909 29.0334 11.1776 29.8092 15.2655C31.6294 24.9929 30.5253 34.4219 30.4358 34.4219C29.1527 43.6123 21.514 43.1647 21.514 43.1647C19.8729 43.1647 18.6495 42.6276 17.8439 42.0606ZM24.7068 22.5163C23.7221 22.4268 22.8866 22.8147 22.5882 23.5607C22.5285 23.7098 22.4689 23.8889 22.4987 23.9784C22.5285 24.0679 22.5882 24.0977 22.6479 24.1276C23.006 24.3066 23.6027 24.3961 24.4681 24.4857C25.3334 24.5752 25.9302 24.6348 26.3181 24.5752C26.3777 24.5752 26.4374 24.5453 26.4971 24.4558C26.5568 24.3663 26.5269 24.1873 26.5269 24.0381C26.4076 23.2026 25.6914 22.6357 24.7068 22.5163Z" fill="#00A82D"/>
<g clip-path="url(#clip0_1_664)">
<path d="M319.385 6H304.75V41L319.385 6Z" fill="#FA0C00"/>
<path d="M329.682 6H344.298V41L329.682 6Z" fill="#FA0C00"/>
<path d="M324.534 18.8999L333.849 41.0001H327.737L324.953 33.9639H318.136L324.534 18.8999Z" fill="#FA0C00"/>
<path d="M368.174 28.2577L369.899 33.2059C369.956 33.3298 370.042 33.3871 370.195 33.3871H373.513C373.694 33.3871 373.722 33.3012 373.694 33.1201L366.839 14.0803C366.81 13.9278 366.782 13.8992 366.629 13.8992H362.51C362.396 13.8992 362.329 13.985 362.329 14.1089C362.272 15.11 362.186 15.4151 362.062 15.7107L355.951 33.0915C355.922 33.3012 355.989 33.3871 356.16 33.3871H359.126C359.307 33.3871 359.393 33.3298 359.459 33.1487L361.09 28.2577H368.174ZM362.034 25.0256C362.93 22.3179 364.112 18.8474 364.589 16.8643H364.617C365.208 18.9428 366.6 23.0615 367.23 25.0256H362.034Z" fill="#FA0C00"/>
<path d="M382.507 33.6828C384.29 33.6828 386.187 33.3587 388.113 32.5292C388.265 32.472 388.294 32.4052 388.294 32.2622C388.237 31.7283 388.17 30.956 388.17 30.3649V12.4407C388.17 12.3262 388.17 12.269 388.027 12.269H384.795C384.671 12.269 384.614 12.3262 384.614 12.4788V18.5521C384.108 18.4949 383.756 18.4663 383.336 18.4663C378.121 18.4663 374.917 21.9081 374.917 26.208C374.917 31.1944 378.207 33.6828 382.507 33.6828ZM384.614 30.3649C384.08 30.5365 383.489 30.6033 382.888 30.6033C380.524 30.6033 378.588 29.2685 378.588 26.0269C378.588 23.1571 380.581 21.46 383.222 21.46C383.756 21.46 384.223 21.5172 384.614 21.6698V30.3649Z" fill="#FA0C00"/>
<path d="M398.605 18.4661C394.152 18.4661 391.397 21.8793 391.397 26.0934C391.397 29.8594 393.59 33.6826 398.538 33.6826C402.724 33.6826 405.66 30.6031 405.66 25.9981C405.66 21.9365 403.172 18.4661 398.605 18.4661ZM398.424 21.4598C400.941 21.4598 402.009 23.6241 402.009 26.0934C402.009 29.1444 400.435 30.6603 398.605 30.6603C396.345 30.6603 395.01 28.763 395.01 26.0267C395.01 23.2141 396.431 21.4598 398.424 21.4598Z" fill="#FA0C00"/>
<path d="M409.002 12.269C408.878 12.269 408.792 12.3262 408.792 12.4788V32.7675C408.792 32.8534 408.878 33.0059 409.002 33.0345C410.422 33.4731 411.91 33.6828 413.445 33.6828C417.84 33.6828 422.111 30.956 422.111 25.4644C422.111 21.4886 419.384 18.4663 415.113 18.4663C414.131 18.4663 413.216 18.6188 412.415 18.8858L412.377 12.5074C412.377 12.2976 412.32 12.269 412.11 12.269H409.002ZM418.46 25.8267C418.46 29.1159 416.21 30.6605 413.778 30.6605C413.273 30.6605 412.825 30.6319 412.415 30.5079V21.8509C412.882 21.6698 413.445 21.5172 414.484 21.5172C416.829 21.5172 418.46 23.0045 418.46 25.8267Z" fill="#FA0C00"/>
<path d="M434.173 26.8943C435.622 26.8943 436.814 26.8657 437.224 26.7703C437.377 26.7417 437.434 26.6845 437.463 26.5606C437.548 26.2364 437.587 25.5595 437.587 24.73C437.587 21.9079 435.889 18.4661 431.504 18.4661C427.023 18.4661 424.534 22.1177 424.534 26.2364C424.534 29.888 426.46 33.6826 431.856 33.6826C433.878 33.6826 435.184 33.3585 436.309 32.8246C436.423 32.7673 436.481 32.672 436.481 32.5004V30.031C436.481 29.888 436.395 29.8594 436.309 29.9166C435.184 30.3933 433.964 30.6317 432.629 30.6317C429.606 30.6317 428.234 28.9632 428.148 26.8943H434.173ZM428.148 24.3391C428.386 22.8899 429.301 21.3168 431.351 21.3168C433.611 21.3168 434.202 23.2141 434.202 24.0722C434.202 24.1008 434.202 24.2247 434.202 24.3105C434.078 24.3391 433.697 24.3391 432.572 24.3391H428.148Z" fill="#FA0C00"/>
</g>
<g clip-path="url(#clip1_1_664)">
<path d="M631.713 12.7715H623.837C623.298 12.7715 622.84 13.163 622.756 13.695L619.571 33.8891C619.508 34.2875 619.816 34.6468 620.22 34.6468H623.98C624.519 34.6468 624.977 34.2553 625.061 33.7222L625.92 28.2755C626.003 27.7423 626.463 27.3508 627.001 27.3508H629.494C634.681 27.3508 637.675 24.8405 638.457 19.866C638.809 17.6896 638.472 15.9796 637.453 14.782C636.334 13.467 634.348 12.7715 631.713 12.7715ZM632.621 20.1469C632.19 22.9728 630.031 22.9728 627.944 22.9728H626.755L627.589 17.6954C627.639 17.3764 627.915 17.1415 628.237 17.1415H628.782C630.204 17.1415 631.546 17.1415 632.239 17.9522C632.652 18.4358 632.779 19.1543 632.621 20.1469Z" fill="#253B80"/>
<path d="M655.253 20.056H651.482C651.161 20.056 650.883 20.2909 650.834 20.6098L650.667 21.6646L650.403 21.2823C649.587 20.0974 647.766 19.7013 645.949 19.7013C641.782 19.7013 638.222 22.8576 637.529 27.2852C637.169 29.4938 637.681 31.6057 638.934 33.0784C640.083 34.4326 641.727 34.9969 643.684 34.9969C647.042 34.9969 648.904 32.8378 648.904 32.8378L648.736 33.8857C648.672 34.2864 648.981 34.6457 649.383 34.6457H652.78C653.32 34.6457 653.776 34.2541 653.861 33.721L655.899 20.8137C655.964 20.4164 655.656 20.056 655.253 20.056ZM649.997 27.3957C649.633 29.5502 647.923 30.9965 645.742 30.9965C644.647 30.9965 643.771 30.6453 643.209 29.9797C642.652 29.3187 642.44 28.378 642.618 27.3301C642.957 25.194 644.696 23.7005 646.844 23.7005C647.915 23.7005 648.785 24.0563 649.359 24.7277C649.933 25.4059 650.161 26.3524 649.997 27.3957Z" fill="#253B80"/>
<path d="M675.338 20.0559H671.548C671.187 20.0559 670.847 20.2355 670.642 20.5361L665.415 28.2351L663.2 20.8366C663.06 20.3737 662.633 20.0559 662.15 20.0559H658.426C657.973 20.0559 657.659 20.4981 657.803 20.9242L661.977 33.174L658.052 38.7139C657.744 39.1503 658.055 39.7503 658.588 39.7503H662.373C662.732 39.7503 663.068 39.5752 663.272 39.2805L675.877 21.0865C676.178 20.6512 675.869 20.0559 675.338 20.0559Z" fill="#253B80"/>
<path d="M687.885 12.7717H680.008C679.471 12.7717 679.012 13.1632 678.928 13.6952L675.743 33.8894C675.68 34.2878 675.988 34.6471 676.39 34.6471H680.432C680.807 34.6471 681.129 34.373 681.188 33.9999L682.091 28.2757C682.174 27.7426 682.634 27.3511 683.172 27.3511H685.663C690.852 27.3511 693.845 24.8408 694.628 19.8662C694.981 17.6898 694.642 15.9798 693.623 14.7823C692.505 13.4672 690.521 12.7717 687.885 12.7717ZM688.793 20.1472C688.364 22.973 686.205 22.973 684.116 22.973H682.929L683.763 17.6956C683.813 17.3766 684.087 17.1417 684.411 17.1417H684.955C686.376 17.1417 687.719 17.1417 688.412 17.9524C688.825 18.436 688.951 19.1546 688.793 20.1472Z" fill="#179BD7"/>
<path d="M711.424 20.0562H707.655C707.332 20.0562 707.056 20.2911 707.008 20.6101L706.841 21.6649L706.576 21.2826C705.76 20.0977 703.94 19.7015 702.123 19.7015C697.956 19.7015 694.398 22.8578 693.705 27.2854C693.345 29.494 693.855 31.6059 695.108 33.0787C696.26 34.4329 697.902 34.9971 699.858 34.9971C703.216 34.9971 705.078 32.838 705.078 32.838L704.91 33.8859C704.847 34.2866 705.155 34.6459 705.559 34.6459H708.955C709.493 34.6459 709.951 34.2544 710.035 33.7212L712.075 20.8139C712.137 20.4166 711.828 20.0562 711.424 20.0562ZM706.167 27.396C705.806 29.5504 704.094 30.9967 701.913 30.9967C700.82 30.9967 699.942 30.6455 699.38 29.98C698.823 29.319 698.613 28.3782 698.788 27.3303C699.13 25.1943 700.867 23.7007 703.015 23.7007C704.085 23.7007 704.956 24.0566 705.529 24.7279C706.106 25.4061 706.334 26.3527 706.167 27.396Z" fill="#179BD7"/>
<path d="M715.87 13.3255L712.638 33.8893C712.574 34.2877 712.883 34.647 713.285 34.647H716.534C717.074 34.647 717.533 34.2555 717.616 33.7223L720.803 13.5294C720.866 13.1309 720.558 12.7705 720.156 12.7705H716.517C716.196 12.7717 715.919 13.0066 715.87 13.3255Z" fill="#179BD7"/>
<path d="M586.867 38.5713L587.469 34.746L586.128 34.7149H579.722L584.173 6.48781C584.187 6.40259 584.232 6.32314 584.298 6.26671C584.363 6.21029 584.447 6.1792 584.535 6.1792H595.336C598.922 6.1792 601.397 6.92538 602.689 8.39817C603.294 9.08908 603.68 9.81108 603.867 10.6056C604.062 11.4393 604.066 12.4354 603.875 13.6502L603.861 13.7389V14.5173L604.467 14.8605C604.977 15.1311 605.382 15.4408 605.693 15.7955C606.211 16.3862 606.546 17.137 606.688 18.0271C606.834 18.9426 606.786 20.0319 606.546 21.2652C606.27 22.6839 605.823 23.9194 605.22 24.9305C604.665 25.862 603.958 26.6347 603.118 27.2335C602.317 27.8024 601.364 28.2342 600.288 28.5105C599.244 28.7823 598.055 28.9193 596.75 28.9193H595.91C595.309 28.9193 594.725 29.1358 594.266 29.5239C593.807 29.92 593.503 30.4612 593.41 31.0531L593.346 31.3974L592.282 38.1395L592.234 38.3871C592.221 38.4654 592.199 38.5045 592.167 38.531C592.138 38.5552 592.097 38.5713 592.057 38.5713H586.867Z" fill="#253B80"/>
<path d="M605.04 13.8286C605.008 14.0347 604.971 14.2455 604.93 14.4619C603.505 21.7752 598.632 24.3016 592.408 24.3016H589.239C588.478 24.3016 587.837 24.8544 587.718 25.6052L586.095 35.8951L585.636 38.8119C585.559 39.3047 585.939 39.7492 586.436 39.7492H592.057C592.722 39.7492 593.288 39.2656 593.393 38.6092L593.448 38.3236L594.506 31.608L594.574 31.2395C594.678 30.5809 595.244 30.0972 595.91 30.0972H596.75C602.196 30.0972 606.459 27.8863 607.705 21.4885C608.225 18.8158 607.956 16.5842 606.579 15.0147C606.162 14.5414 605.645 14.1487 605.04 13.8286Z" fill="#179BD7"/>
<path d="M603.55 13.2344C603.332 13.1711 603.108 13.1135 602.877 13.0617C602.646 13.011 602.409 12.9661 602.165 12.927C601.31 12.7888 600.374 12.7231 599.371 12.7231H590.905C590.697 12.7231 590.499 12.7704 590.321 12.8556C589.931 13.0433 589.641 13.4129 589.571 13.8654L587.77 25.2724L587.718 25.6051C587.836 24.8544 588.478 24.3016 589.239 24.3016H592.408C598.632 24.3016 603.505 21.7741 604.929 14.4619C604.972 14.2454 605.008 14.0347 605.04 13.8286C604.68 13.6374 604.289 13.4739 603.869 13.3346C603.765 13.3001 603.658 13.2667 603.55 13.2344Z" fill="#222D65"/>
<path d="M589.571 13.8655C589.641 13.413 589.931 13.0433 590.321 12.8568C590.5 12.7716 590.697 12.7244 590.905 12.7244H599.371C600.374 12.7244 601.31 12.79 602.165 12.9282C602.409 12.9673 602.646 13.0122 602.878 13.0629C603.108 13.1147 603.332 13.1723 603.55 13.2356C603.658 13.2679 603.765 13.3013 603.87 13.3347C604.29 13.474 604.681 13.6387 605.041 13.8287C605.465 11.1261 605.038 9.28594 603.577 7.6197C601.966 5.78533 599.058 5 595.337 5H584.536C583.776 5 583.128 5.55273 583.01 6.30467L578.512 34.8219C578.423 35.3862 578.858 35.8952 579.427 35.8952H586.095L587.77 25.2724L589.571 13.8655Z" fill="#253B80"/>
</g>
<g clip-path="url(#clip2_1_664)">
<path fill-rule="evenodd" clip-rule="evenodd" d="M930.185 37.8069C923.821 42.4973 914.598 44.9998 906.656 44.9998C895.521 44.9998 885.497 40.8814 877.913 34.0316C877.317 33.493 877.851 32.7589 878.566 33.1784C886.751 37.9403 896.87 40.8051 907.324 40.8051C914.374 40.8051 922.129 39.3465 929.26 36.3196C930.337 35.862 931.238 37.0251 930.185 37.8069Z" fill="#FF9900"/>
<path fill-rule="evenodd" clip-rule="evenodd" d="M932.831 34.78C932.02 33.7409 927.454 34.2891 925.404 34.5322C924.78 34.6084 924.684 34.065 925.247 33.6741C928.884 31.1144 934.852 31.8533 935.548 32.7113C936.243 33.574 935.366 39.5563 931.949 42.4115C931.424 42.8501 930.924 42.6165 931.157 42.035C931.925 40.1187 933.646 35.8239 932.831 34.78Z" fill="#FF9900"/>
<path fill-rule="evenodd" clip-rule="evenodd" d="M925.547 15.6036V13.1154C925.547 12.7388 925.833 12.4862 926.177 12.4862H937.316C937.674 12.4862 937.96 12.7436 937.96 13.1154V15.2461C937.955 15.6036 937.655 16.0708 937.121 16.8096L931.348 25.0513C933.493 24.9988 935.758 25.3182 937.702 26.4145C938.141 26.6624 938.26 27.0247 938.293 27.3822V30.0373C938.293 30.3995 937.893 30.8238 937.474 30.6045C934.046 28.8074 929.494 28.612 925.705 30.6236C925.318 30.8333 924.913 30.4138 924.913 30.0516V27.53C924.913 27.1248 924.918 26.4336 925.323 25.8187L932.011 16.2281H926.191C925.833 16.2281 925.547 15.9754 925.547 15.6036Z" fill="black"/>
<path fill-rule="evenodd" clip-rule="evenodd" d="M884.911 31.1289H881.522C881.198 31.105 880.94 30.8619 880.917 30.5521V13.1583C880.917 12.8104 881.207 12.5339 881.57 12.5339H884.73C885.059 12.5482 885.321 12.8008 885.345 13.1154V15.3892H885.407C886.231 13.1917 887.781 12.1669 889.868 12.1669C891.99 12.1669 893.315 13.1917 894.268 15.3892C895.088 13.1917 896.952 12.1669 898.949 12.1669C900.369 12.1669 901.923 12.7532 902.872 14.0688C903.945 15.5322 903.725 17.6581 903.725 19.5219L903.72 30.4997C903.72 30.8476 903.43 31.1289 903.067 31.1289H899.683C899.345 31.105 899.073 30.8333 899.073 30.4997V21.2808C899.073 20.5468 899.14 18.7163 898.978 18.0204C898.725 16.8526 897.967 16.5236 896.985 16.5236C896.165 16.5236 895.307 17.0718 894.959 17.9489C894.611 18.826 894.645 20.2941 894.645 21.2808V30.4997C894.645 30.8476 894.354 31.1289 893.992 31.1289H890.607C890.264 31.105 889.997 30.8333 889.997 30.4997L889.992 21.2808C889.992 19.3408 890.312 16.4855 887.905 16.4855C885.469 16.4855 885.564 19.2693 885.564 21.2808V30.4997C885.564 30.8476 885.273 31.1289 884.911 31.1289Z" fill="black"/>
<path fill-rule="evenodd" clip-rule="evenodd" d="M947.55 12.1669C952.579 12.1669 955.301 16.4855 955.301 21.9768C955.301 27.2821 952.293 31.4911 947.55 31.4911C942.612 31.4911 939.924 27.1725 939.924 21.7909C939.924 16.3759 942.645 12.1669 947.55 12.1669ZM947.579 15.7181C945.081 15.7181 944.924 19.1215 944.924 21.2427C944.924 23.3686 944.891 27.9066 947.55 27.9066C950.177 27.9066 950.301 24.2457 950.301 22.0149C950.301 20.5468 950.239 18.7926 949.795 17.4007C949.414 16.19 948.656 15.7181 947.579 15.7181Z" fill="black"/>
<path fill-rule="evenodd" clip-rule="evenodd" d="M961.822 31.1289H958.447C958.109 31.105 957.837 30.8333 957.837 30.4997L957.832 13.1011C957.861 12.7818 958.142 12.5339 958.485 12.5339H961.627C961.922 12.5482 962.165 12.7484 962.232 13.0201V15.6799H962.294C963.242 13.3013 964.572 12.1669 966.913 12.1669C968.433 12.1669 969.916 12.715 970.869 14.2166C971.756 15.6084 971.756 17.9489 971.756 19.6315V30.5807C971.718 30.8858 971.436 31.1289 971.103 31.1289H967.704C967.394 31.105 967.137 30.8762 967.104 30.5807V21.1331C967.104 19.2311 967.323 16.4474 964.982 16.4474C964.158 16.4474 963.4 17.0003 963.023 17.8393C962.547 18.9022 962.485 19.9605 962.485 21.1331V30.4997C962.48 30.8476 962.184 31.1289 961.822 31.1289Z" fill="black"/>
<path fill-rule="evenodd" clip-rule="evenodd" d="M916.667 22.8204C916.667 24.1408 916.7 25.2419 916.033 26.4146C915.494 27.3679 914.636 27.9542 913.688 27.9542C912.386 27.9542 911.624 26.9627 911.624 25.4993C911.624 22.6107 914.212 22.0864 916.667 22.0864V22.8204ZM920.085 31.0812C919.861 31.2814 919.536 31.2957 919.284 31.1622C918.159 30.2279 917.954 29.7942 917.339 28.9028C915.48 30.7999 914.16 31.3672 911.752 31.3672C908.897 31.3672 906.681 29.6083 906.681 26.0857C906.681 23.3353 908.168 21.4619 910.294 20.5467C912.134 19.7364 914.703 19.5934 916.667 19.3693V18.9308C916.667 18.1252 916.729 17.1719 916.252 16.476C915.842 15.8515 915.051 15.5941 914.35 15.5941C913.059 15.5941 911.91 16.2567 911.629 17.6295C911.571 17.9346 911.347 18.2349 911.037 18.2492L907.753 17.8964C907.477 17.8345 907.167 17.6104 907.248 17.1862C908.001 13.2012 911.605 12 914.827 12C916.476 12 918.631 12.4385 919.932 13.6874C921.581 15.2271 921.424 17.2815 921.424 19.5171V24.7986C921.424 26.386 922.082 27.0819 922.702 27.9399C922.916 28.245 922.964 28.612 922.687 28.8408C921.996 29.4176 920.766 30.4901 920.089 31.0907L920.085 31.0812Z" fill="black"/>
<path fill-rule="evenodd" clip-rule="evenodd" d="M872.236 22.8204C872.236 24.1408 872.27 25.2419 871.602 26.4145C871.064 27.3679 870.21 27.9542 869.257 27.9542C867.956 27.9542 867.198 26.9627 867.198 25.4993C867.198 22.6107 869.786 22.0864 872.236 22.0864V22.8204ZM875.654 31.0812C875.43 31.2814 875.106 31.2957 874.853 31.1622C873.728 30.2279 873.528 29.7941 872.908 28.9028C871.049 30.7999 869.734 31.3672 867.322 31.3672C864.471 31.3672 862.25 29.6082 862.25 26.0856C862.25 23.3352 863.742 21.4619 865.863 20.5467C867.703 19.7364 870.272 19.5934 872.236 19.3693V18.9308C872.236 18.1252 872.298 17.1719 871.826 16.4759C871.412 15.8515 870.62 15.5941 869.924 15.5941C868.633 15.5941 867.479 16.2567 867.198 17.6295C867.141 17.9346 866.917 18.2349 866.612 18.2492L863.323 17.8964C863.046 17.8345 862.741 17.6104 862.817 17.1862C863.575 13.2012 867.174 12 870.396 12C872.046 12 874.2 12.4385 875.501 13.6874C877.151 15.2271 876.993 17.2815 876.993 19.5171V24.7986C876.993 26.3859 877.651 27.0819 878.271 27.9399C878.49 28.245 878.538 28.612 878.261 28.8408C877.57 29.4176 876.34 30.4901 875.664 31.0907L875.654 31.0812Z" fill="black"/>
</g>
<path fill-rule="evenodd" clip-rule="evenodd" d="M1235.96 31.9803C1236.03 32.8499 1236.73 33.9567 1237.93 33.9567H1238.64C1238.91 33.9567 1239.14 33.7327 1239.14 33.4592V17.9535H1239.13C1239.12 17.6922 1238.9 17.483 1238.64 17.483H1236.45C1236.19 17.483 1235.97 17.6922 1235.96 17.9535H1235.96V19.2134C1234.62 17.5635 1232.51 16.8787 1230.39 16.8787C1225.58 16.8787 1221.68 20.7811 1221.68 25.5953C1221.68 30.4099 1225.58 34.3124 1230.39 34.3124C1232.51 34.3124 1234.81 33.4911 1235.96 31.9784V31.9803ZM1230.4 31.2617C1227.34 31.2617 1224.86 28.725 1224.86 25.5953C1224.86 22.4663 1227.34 19.9295 1230.4 19.9295C1233.46 19.9295 1235.94 22.4663 1235.94 25.5953C1235.94 28.725 1233.46 31.2617 1230.4 31.2617Z" fill="#0D0E10"/>
<path fill-rule="evenodd" clip-rule="evenodd" d="M1218.92 24.49C1218.92 19.9672 1216.07 16.916 1211.52 16.916C1209.35 16.916 1207.57 18.172 1206.94 19.2509C1206.81 18.4073 1206.36 17.5205 1204.97 17.5205H1204.27C1203.99 17.5205 1203.77 17.7447 1203.77 18.0182V32.0191C1203.77 32.0196 1203.77 32.0206 1203.77 32.0213V33.5252H1203.77C1203.79 33.786 1204 33.9955 1204.27 33.9955H1206.45C1206.48 33.9955 1206.52 33.9915 1206.55 33.9854C1206.56 33.9825 1206.58 33.9768 1206.59 33.9729C1206.61 33.9679 1206.62 33.964 1206.64 33.9576C1206.66 33.9496 1206.68 33.9388 1206.69 33.9287C1206.7 33.9232 1206.71 33.9194 1206.72 33.9138C1206.74 33.8997 1206.76 33.8827 1206.78 33.8655C1206.79 33.8623 1206.79 33.8601 1206.79 33.8572C1206.81 33.8362 1206.83 33.813 1206.85 33.7889C1206.91 33.7138 1206.94 33.6229 1206.94 33.5252H1206.95V24.3656C1206.95 21.9365 1208.92 19.9672 1211.34 19.9672C1213.77 19.9672 1215.74 21.9365 1215.74 24.3656L1215.74 32.0218L1215.74 32.0191C1215.74 32.0259 1215.74 32.0329 1215.74 32.0401V33.5252H1215.74C1215.76 33.786 1215.97 33.9955 1216.24 33.9955H1218.42C1218.46 33.9955 1218.49 33.9915 1218.52 33.9854C1218.53 33.983 1218.55 33.9777 1218.56 33.9742C1218.58 33.969 1218.6 33.9646 1218.61 33.9576C1218.63 33.9502 1218.65 33.9399 1218.66 33.9304C1218.67 33.9246 1218.68 33.9204 1218.69 33.9138C1218.71 33.9005 1218.73 33.8844 1218.75 33.8687C1218.76 33.8643 1218.76 33.8612 1218.77 33.8568C1218.79 33.8368 1218.8 33.8152 1218.82 33.7926C1218.82 33.7909 1218.82 33.7896 1218.83 33.7879C1218.88 33.7134 1218.91 33.6235 1218.92 33.5265C1218.92 33.5258 1218.92 33.5252 1218.92 33.5252H1218.92L1218.92 24.49Z" fill="#0D0E10"/>
<path fill-rule="evenodd" clip-rule="evenodd" d="M1196.17 31.9803C1196.24 32.8498 1196.94 33.9566 1198.14 33.9566H1198.85C1199.12 33.9566 1199.35 33.7327 1199.35 33.4591V17.9535H1199.34C1199.33 17.6922 1199.11 17.483 1198.85 17.483H1196.67C1196.4 17.483 1196.19 17.6922 1196.17 17.9535H1196.17V19.2134C1194.83 17.5635 1192.72 16.8787 1190.6 16.8787C1185.79 16.8787 1181.89 20.7811 1181.89 25.5954C1181.89 30.4098 1185.79 34.3124 1190.6 34.3124C1192.72 34.3124 1195.03 33.4912 1196.17 31.9783L1196.17 31.9803ZM1190.61 31.2616C1187.55 31.2616 1185.07 28.725 1185.07 25.5954C1185.07 22.4663 1187.55 19.9295 1190.61 19.9295C1193.67 19.9295 1196.15 22.4663 1196.15 25.5954C1196.15 28.725 1193.67 31.2616 1190.61 31.2616Z" fill="#0D0E10"/>
<path fill-rule="evenodd" clip-rule="evenodd" d="M1168.97 29.7596C1170.43 30.7707 1172.02 31.2618 1173.55 31.2618C1175.01 31.2618 1176.52 30.5057 1176.52 29.1896C1176.52 27.4325 1173.24 27.1591 1171.17 26.4575C1169.11 25.7559 1167.33 24.3055 1167.33 21.9568C1167.33 18.3628 1170.53 16.8784 1173.52 16.8784C1175.41 16.8784 1177.36 17.5029 1178.63 18.3975C1179.07 18.728 1178.8 19.1075 1178.8 19.1075L1177.59 20.8346C1177.46 21.0291 1177.22 21.1972 1176.88 20.9866C1176.54 20.7762 1175.34 19.9293 1173.52 19.9293C1171.7 19.9293 1170.6 20.7715 1170.6 21.8153C1170.6 23.067 1172.03 23.4607 1173.7 23.8874C1176.61 24.6729 1179.78 25.6171 1179.78 29.1896C1179.78 32.3561 1176.83 34.3131 1173.55 34.3131C1171.08 34.3131 1168.96 33.6059 1167.19 32.306C1166.83 31.9367 1167.08 31.5938 1167.08 31.5938L1168.29 29.8755C1168.53 29.5542 1168.84 29.6663 1168.97 29.7596Z" fill="#0D0E10"/>
<path fill-rule="evenodd" clip-rule="evenodd" d="M1160.58 31.9803C1160.65 32.8498 1161.35 33.9566 1162.55 33.9566H1163.26C1163.53 33.9566 1163.75 33.7327 1163.75 33.4591V17.9535H1163.75C1163.74 17.6922 1163.52 17.483 1163.26 17.483H1161.07C1160.81 17.483 1160.59 17.6922 1160.58 17.9535H1160.58V19.2134C1159.24 17.5635 1157.13 16.8787 1155.01 16.8787C1150.2 16.8787 1146.3 20.7811 1146.3 25.5954C1146.3 30.4098 1150.2 34.3124 1155.01 34.3124C1157.13 34.3124 1159.43 33.4912 1160.57 31.9783L1160.58 31.9803ZM1155.02 31.2616C1151.96 31.2616 1149.48 28.725 1149.48 25.5954C1149.48 22.4663 1151.96 19.9295 1155.02 19.9295C1158.08 19.9295 1160.56 22.4663 1160.56 25.5954C1160.56 28.725 1158.08 31.2616 1155.02 31.2616Z" fill="#0D0E10"/>
<path fill-rule="evenodd" clip-rule="evenodd" d="M1134.09 26.1881C1130.85 26.1881 1128.23 28.8123 1128.23 32.0497C1128.23 35.2868 1130.85 37.911 1134.09 37.911C1137.33 37.911 1139.95 35.2868 1139.95 32.0497C1139.95 28.8123 1137.33 26.1881 1134.09 26.1881ZM1118.86 26.1886C1115.62 26.1886 1113 28.8123 1113 32.0497C1113 35.2868 1115.62 37.911 1118.86 37.911C1122.1 37.911 1124.72 35.2868 1124.72 32.0497C1124.72 28.8123 1122.1 26.1886 1118.86 26.1886ZM1132.34 18.8612C1132.34 22.0986 1129.71 24.7231 1126.48 24.7231C1123.24 24.7231 1120.61 22.0986 1120.61 18.8612C1120.61 15.6245 1123.24 13 1126.48 13C1129.71 13 1132.34 15.6245 1132.34 18.8612Z" fill="#F06A6A"/>
<defs>
<clipPath id="clip0_1_664">
<rect width="133" height="48" fill="white" transform="translate(304.75)"/>
</clipPath>
<clipPath id="clip1_1_664">
<rect width="143" height="48" fill="white" transform="translate(578.5)"/>
</clipPath>
<clipPath id="clip2_1_664">
<rect width="110" height="48" fill="white" transform="translate(862.25)"/>
</clipPath>
</defs>
</svg>
